<?xml version="1.0" encoding="utf-8"?>
<!-- Generator: Adobe Illustrator 24.1.1, SVG Export Plug-In . SVG Version: 6.00 Build 0)  -->
<svg version="1.1" id="ëÎÓÈ_1" xmlns="http://www.w3.org/2000/svg" xmlns:xlink="http://www.w3.org/1999/xlink" x="0px" y="0px"
	 viewBox="0 0 82 73.2" style="enable-background:new 0 0 82 73.2;" xml:space="preserve">
<style type="text/css">
	.st0{fill:#FFFFFF;}
</style>
<g>
	<path class="st0" d="M45.2,67h-8.4c-1.9,0-3.8-0.8-5.1-2.1c-0.7-0.7-1.7-1.1-2.7-1.1H5.2c-1.8,0-3.3-1.5-3.3-3.4V17.9
		c0-1.8,1.5-3.4,3.3-3.4h1.6V18H5.2l0.1,42.4l23.7-0.1c1.9,0,3.8,0.8,5.1,2.1c0.7,0.7,1.7,1.1,2.7,1.1h8.4c1,0,2-0.4,2.7-1.1
		c1.4-1.4,3.2-2.1,5.1-2.1h23.8l-0.1-42.4L75.2,18v-3.4h1.6c1.8,0,3.3,1.5,3.3,3.4v42.4c0,1.8-1.5,3.4-3.3,3.4H53
		c-1,0-2,0.4-2.7,1.1C49,66.2,47.1,67,45.2,67z"/>
	<path class="st0" d="M42.7,60.4h-5.8l-0.5-0.7c-0.7-1-2.3-2.6-5.1-2.6H8.3V9.7h8.2v3.4h-4.8v40.6h19.5c3.7,0,6,1.8,7.3,3.3h0.7
		V21.2c0-1.9-0.6-8.1-8.1-8.1h-4.9V9.7h4.9c6.9,0,11.5,4.6,11.5,11.5V60.4z"/>
	<path class="st0" d="M45.3,60.4h-6V21.2c0-6.9,4.6-11.5,11.5-11.5h22.9v47.5H50.8c-3.3,0-4.4,1.1-5,2.3L45.3,60.4z M42.7,57h0.6
		c2-2.9,5.2-3.3,7.5-3.3h19.5V13.1H50.8c-7.5,0-8.1,6.2-8.1,8.1V57z"/>
	<path class="st0" d="M28,30.9l-6.6-4.4l-6.6,4.4V6.4H28V30.9z M18.3,9.8v14.7l3.2-2.1l3.2,2.1V9.8H18.3z"/>
</g>
</svg>
