<?xml version="1.0" encoding="utf-8"?>
<!-- Generator: Adobe Illustrator 24.1.1, SVG Export Plug-In . SVG Version: 6.00 Build 0)  -->
<svg version="1.1" id="ëÎÓÈ_1" xmlns="http://www.w3.org/2000/svg" xmlns:xlink="http://www.w3.org/1999/xlink" x="0px" y="0px"
	 viewBox="0 0 77 74" style="enable-background:new 0 0 77 74;" xml:space="preserve">
<style type="text/css">
	.st0{fill:#FFFFFF;}
</style>
<g>
	<polygon class="st0" points="44.5,55.3 3.6,55.3 3.6,9.2 73.8,9.2 73.8,37.4 70.5,37.4 70.5,12.5 6.9,12.5 6.9,52 44.5,52 	"/>
	<polygon class="st0" points="23.8,65.1 21.6,62.8 24.9,59.3 53.9,59.3 57.3,62.8 55,65.1 52.6,62.6 26.3,62.6 	"/>
	<rect x="32.7" y="56.6" class="st0" width="3.2" height="4.4"/>
	<rect x="42.9" y="56.6" class="st0" width="3.2" height="4.4"/>
	<path class="st0" d="M61.6,57.6c-0.2,0-0.5,0-0.7-0.1c-0.8-0.2-1.4-0.7-1.8-1.3l-3.9-6.9l-3.6,3.5c-0.7,0.7-1.7,0.9-2.5,0.6
		c-0.8-0.4-1.3-1.2-1.3-2.1V25.4l20.6,15.2c0.9,0.6,1.2,1.8,0.8,3c-0.4,1.3-1.3,2.1-2.4,2.1h-3.3l3.3,5.8c0.8,1.5,0.3,3.4-1.2,4.3
		l-2,1.3C62.9,57.4,62.3,57.6,61.6,57.6z M56,44l5.8,10.3l2.1-1.3c0,0,0.1,0,0.1,0l-6-10.6h7.5L51,31.8v17L56,44z"/>
	<rect x="47.8" y="18.8" class="st0" width="3.2" height="4"/>
	<rect x="40.2" y="26.4" class="st0" width="3.9" height="3.3"/>
	<polygon class="st0" points="44.4,25.3 41.7,22.6 44,20.3 46.6,22.9 	"/>
	<polygon class="st0" points="54.5,25.3 52.2,22.9 54.8,20.3 57.1,22.6 	"/>
</g>
</svg>
