<?xml version="1.0" encoding="utf-8"?>
<!-- Generator: Adobe Illustrator 24.1.1, SVG Export Plug-In . SVG Version: 6.00 Build 0)  -->
<svg version="1.1" id="ëÎÓÈ_1" xmlns="http://www.w3.org/2000/svg" xmlns:xlink="http://www.w3.org/1999/xlink" x="0px" y="0px"
	 viewBox="0 0 76 69" style="enable-background:new 0 0 76 69;" xml:space="preserve">
<style type="text/css">
	.st0{fill:#FFFFFF;}
</style>
<g>
	<path class="st0" d="M22.7,49.1H18v-3h4.7c0.9,0,1.6-0.7,1.6-1.6v-3.1h3v3.1C27.3,47.1,25.2,49.1,22.7,49.1z"/>
	<path class="st0" d="M18,61.6h-1.6c-4,0-5.3-3.6-6-5.3L10.4,56c-0.6-1.5-3.9-8.9-3.9-9c-0.6-1.5-0.8-3-0.8-4.4v-1.1h3v1.1
		c0,1.1,0.2,2.2,0.6,3.3c0.1,0.2,3.4,7.5,4,9l0.1,0.3c0.7,1.9,1.4,3.4,3.2,3.4H18c0.7,0,1.5-0.2,1.8-0.7c0.3-0.5,0.1-1.3-0.1-2
		c-0.9-2.3-3.9-8.9-3.9-9c-0.6-1.5-0.8-3-0.8-4.5v-1.1h3v1.1c0,1.1,0.2,2.2,0.6,3.3c0.1,0.2,3.1,6.7,4,9c0.9,2.3,0.4,3.9-0.2,4.7
		C21,61.5,18.7,61.6,18,61.6z"/>
	<path class="st0" d="M52.3,39.8v-3c2.6,0,4.7-2.2,4.7-4.7c0-1.2-0.5-2.4-1.4-3.3c-0.9-0.9-2.1-1.4-3.3-1.4h0v-3h0
		c2.1,0,4,0.8,5.5,2.3c1.5,1.5,2.3,3.4,2.3,5.4C60,36.3,56.4,39.8,52.3,39.8z"/>
	<path class="st0" d="M50.7,54.8c-0.7,0-1.5-0.3-2.1-0.8C41.1,47,34.4,42.9,30.5,42.9H11.8C5.8,42.9,1,38,1,32.1v-1.6
		c0-6,4.9-10.8,10.8-10.8h18.7c4,0,10.6-4,18.2-11.1l0,0c0.9-0.8,2.1-1,3.3-0.6c1.1,0.5,1.8,1.6,1.8,2.8v40.9c0,1.2-0.7,2.3-1.8,2.8
		C51.5,54.7,51.1,54.8,50.7,54.8z M11.8,22.7c-4.3,0-7.9,3.5-7.9,7.9v1.6c0,4.3,3.5,7.9,7.9,7.9h18.7c6.4,0,15.4,7.5,20.2,11.9
		l0.1-41l-0.1-0.1c-4.8,4.4-13.8,11.9-20.2,11.9H11.8z"/>
	<rect x="29" y="21.2" class="st0" width="3" height="20.2"/>
	<path class="st0" d="M67.1,50.3l-2-2.2c4.9-4.6,7.5-10.1,7.5-16c0-5.9-2.6-11.5-7.5-16l2-2.2c5.5,5.2,8.4,11.5,8.4,18.2
		C75.6,38.8,72.6,45.1,67.1,50.3z"/>
	<path class="st0" d="M61.1,47.1L59,45c3.9-3.9,5.8-8.2,5.8-13s-1.9-9-5.8-13l2.1-2.1c4.5,4.5,6.7,9.5,6.7,15.1
		C67.8,37.7,65.6,42.6,61.1,47.1z"/>
</g>
</svg>
