<?xml version="1.0" encoding="utf-8"?>
<!-- Generator: Adobe Illustrator 24.1.1, SVG Export Plug-In . SVG Version: 6.00 Build 0)  -->
<svg version="1.1" id="ëÎÓÈ_1" xmlns="http://www.w3.org/2000/svg" xmlns:xlink="http://www.w3.org/1999/xlink" x="0px" y="0px"
	 viewBox="0 0 73.5 74.5" style="enable-background:new 0 0 73.5 74.5;" xml:space="preserve">
<style type="text/css">
	.st0{fill:#FFFFFF;}
</style>
<path class="st0" d="M55.8,73.1h-3.4V14H21v59.1h-3.4V12.3c0-1,0.8-1.7,1.7-1.7h34.9c0.9,0,1.7,0.8,1.7,1.7V73.1z"/>
<path class="st0" d="M51.1,12.3h-3.4V4.4h-22v7.9h-3.4V2.7c0-1,0.8-1.7,1.7-1.7h25.4c0.9,0,1.7,0.8,1.7,1.7V12.3z"/>
<path class="st0" d="M43.2,73.1h-3.4v-6.3h-6.1v6.3h-3.4v-8c0-1,0.8-1.7,1.7-1.7h9.5c0.9,0,1.7,0.8,1.7,1.7V73.1z"/>
<path class="st0" d="M35.2,42.7h-3.4v-3.1h-2.9v3.1h-3.4v-4.8c0-1,0.8-1.7,1.7-1.7h6.3c0.9,0,1.7,0.8,1.7,1.7V42.7z"/>
<path class="st0" d="M35.2,55.5h-3.4v-3.1h-2.9v3.1h-3.4v-4.8c0-1,0.8-1.7,1.7-1.7h6.3c0.9,0,1.7,0.8,1.7,1.7V55.5z"/>
<path class="st0" d="M47.9,42.7h-3.4v-3.1h-2.9v3.1h-3.4v-4.8c0-1,0.8-1.7,1.7-1.7h6.3c0.9,0,1.7,0.8,1.7,1.7V42.7z"/>
<path class="st0" d="M35.2,29.9h-3.4v-3.1h-2.9v3.1h-3.4v-4.8c0-1,0.8-1.7,1.7-1.7h6.3c0.9,0,1.7,0.8,1.7,1.7V29.9z"/>
<path class="st0" d="M47.9,29.9h-3.4v-3.1h-2.9v3.1h-3.4v-4.8c0-1,0.8-1.7,1.7-1.7h6.3c0.9,0,1.7,0.8,1.7,1.7V29.9z"/>
<path class="st0" d="M47.9,55.5h-3.4v-3.1h-2.9v3.1h-3.4v-4.8c0-1,0.8-1.7,1.7-1.7h6.3c0.9,0,1.7,0.8,1.7,1.7V55.5z"/>
<rect x="58.9" y="45.8" class="st0" width="4.8" height="3.5"/>
<rect x="58.9" y="52.2" class="st0" width="4.8" height="3.5"/>
<rect x="58.9" y="58.6" class="st0" width="4.8" height="3.5"/>
<rect x="58.9" y="65" class="st0" width="4.8" height="3.5"/>
<path class="st0" d="M70.1,73.1h-3.4V42.8H54.1v-3.5h14.3c0.9,0,1.7,0.8,1.7,1.7V73.1z"/>
<path class="st0" d="M65.4,41.1h-3.4v-6.3h-7.8v-3.5h9.5c0.9,0,1.7,0.8,1.7,1.7V41.1z"/>
<rect x="9.7" y="45.8" class="st0" width="4.8" height="3.5"/>
<rect x="9.7" y="52.2" class="st0" width="4.8" height="3.5"/>
<rect x="9.7" y="58.6" class="st0" width="4.8" height="3.5"/>
<rect x="9.7" y="65" class="st0" width="4.8" height="3.5"/>
<path class="st0" d="M6.7,73.1H3.3v-32c0-1,0.8-1.7,1.7-1.7h14.3v3.5H6.7V73.1z"/>
<path class="st0" d="M11.4,41.1H8v-8c0-1,0.8-1.7,1.7-1.7h9.5v3.5h-7.8V41.1z"/>
</svg>
