<?xml version="1.0" encoding="utf-8"?>
<!-- Generator: Adobe Illustrator 24.1.1, SVG Export Plug-In . SVG Version: 6.00 Build 0)  -->
<svg version="1.1" id="ëÎÓÈ_1" xmlns="http://www.w3.org/2000/svg" xmlns:xlink="http://www.w3.org/1999/xlink" x="0px" y="0px"
	 viewBox="0 0 69 65.4" style="enable-background:new 0 0 69 65.4;" xml:space="preserve">
<style type="text/css">
	.st0{fill:#FFFFFF;}
</style>
<g>
	<path class="st0" d="M23.6,41.7c-3.4,0-6.2-2.8-6.2-6.2c0-3.4,2.8-6.2,6.2-6.2s6.2,2.8,6.2,6.2C29.8,39,27,41.7,23.6,41.7z
		 M23.6,32.2c-1.9,0-3.4,1.5-3.4,3.4c0,1.9,1.5,3.4,3.4,3.4s3.4-1.5,3.4-3.4C27,33.7,25.5,32.2,23.6,32.2z"/>
	<path class="st0" d="M9.9,47.2c-3.4,0-6.2-2.8-6.2-6.2c0-3.4,2.8-6.2,6.2-6.2s6.2,2.8,6.2,6.2C16.1,44.4,13.3,47.2,9.9,47.2z
		 M9.9,37.6c-1.9,0-3.4,1.5-3.4,3.4c0,1.9,1.5,3.4,3.4,3.4s3.4-1.5,3.4-3.4C13.4,39.2,11.8,37.6,9.9,37.6z"/>
	<path class="st0" d="M16.1,63.9l-2.7-0.6l3.2-14.9c0.6-2.9,2.7-4.7,6.1-5.3l7.8-1.3l9.1-8.2l0.9,1.5c0.1,0.2,3.2,5.6-0.5,9.1
		l-6.1,6l-9.3,2.8l-0.8-2.6l8.7-2.6l5.6-5.6c1.2-1.2,1.1-2.9,0.7-4.1l-7,6.3l-8.6,1.4c-2.3,0.4-3.5,1.4-3.9,3.2L16.1,63.9z"/>
	<rect x="21.4" y="55.4" transform="matrix(0.1963 -0.9805 0.9805 0.1963 -32.8503 73.5116)" class="st0" width="14" height="2.7"/>
	<path class="st0" d="M54.5,45.8c-3.4,0-6.2-2.8-6.2-6.2c0-3.4,2.8-6.2,6.2-6.2s6.2,2.8,6.2,6.2C60.6,43.1,57.9,45.8,54.5,45.8z
		 M54.5,36.3c-1.9,0-3.4,1.5-3.4,3.4c0,1.9,1.5,3.4,3.4,3.4s3.4-1.5,3.4-3.4C57.9,37.8,56.4,36.3,54.5,36.3z"/>
	<path class="st0" d="M64.7,64l-3.1-10.7c-0.4-1.8-1.3-3.4-5.1-3.4H42c0.5,1.2,1.6,2.7,3.6,2.7h11v2.7h-11c-4.5,0-6.4-4.3-6.8-6.6
		l-0.3-1.6h18c4.4,0,7,1.8,7.7,5.5l3,10.6L64.7,64z"/>
	<rect x="52.8" y="53.8" transform="matrix(0.94 -0.3413 0.3413 0.94 -16.8316 22.0189)" class="st0" width="2.7" height="10.2"/>
	<path class="st0" d="M4.9,63.9l-2.7-0.6l2-9.5c0.6-2.9,2.7-4.7,6.1-5.3l6.8-1.4l0.5,2.7l-6.8,1.4c-2.4,0.4-3.6,1.4-3.9,3.2
		L4.9,63.9z"/>
	<polygon class="st0" points="9.4,30 10.4,20.7 2.9,14.9 24,5.9 25,8.4 8.3,15.6 13.3,19.4 12.6,25.6 29.4,18.5 30.4,21 	"/>
	<rect x="28.5" y="0.5" transform="matrix(0.919 -0.3943 0.3943 0.919 -5.3524 13.3845)" class="st0" width="2.7" height="38.5"/>
	
		<rect x="39.5" y="42.3" transform="matrix(0.9243 -0.3817 0.3817 0.9243 -14.2921 19.0403)" class="st0" width="2.7" height="6.5"/>
	<rect x="45" y="53.7" transform="matrix(0.9243 -0.3817 0.3817 0.9243 -18.9557 22.1461)" class="st0" width="2.7" height="10.4"/>
</g>
</svg>
